<?xml version="1.0" standalone="no"?>
<!DOCTYPE svg PUBLIC "-//W3C//DTD SVG 20010904//EN"
 "http://www.w3.org/TR/2001/REC-SVG-20010904/DTD/svg10.dtd">
<svg version="1.0" xmlns="http://www.w3.org/2000/svg"
 width="866.000000pt" height="288.000000pt" viewBox="0 0 866.000000 288.000000"
 preserveAspectRatio="xMidYMid meet">

<g transform="translate(0.000000,288.000000) scale(0.100000,-0.100000)"
fill="#000000" stroke="none">
<path d="M1283 2663 c-44 -65 -86 -129 -93 -143 l-13 -25 23 20 23 20 -8 -25
c-12 -39 -45 -101 -73 -139 -22 -29 -26 -31 -34 -16 -9 15 -13 13 -39 -16 -16
-18 -29 -37 -29 -43 0 -6 7 -3 14 7 26 34 26 16 -1 -35 -25 -49 -66 -99 -88
-106 -6 -2 -9 -10 -8 -19 1 -9 -5 -23 -13 -30 -8 -8 -19 -34 -25 -58 -13 -50
-31 -70 -55 -61 -11 4 -14 13 -11 27 5 19 2 21 -31 16 -30 -3 -42 1 -65 22
l-28 26 25 -46 c28 -50 116 -306 116 -338 0 -11 -8 -21 -17 -23 -28 -7 881
-14 997 -8 93 4 100 6 59 13 -55 9 -59 18 -59 118 0 61 -23 159 -49 208 -6 10
-14 50 -17 87 -7 71 -16 94 -40 94 -19 0 -18 34 1 50 35 29 11 29 -41 -1 -48
-27 -60 -30 -76 -20 -11 7 -22 11 -24 8 -2 -2 5 -30 16 -62 11 -32 18 -60 16
-62 -2 -3 -10 13 -17 34 -6 21 -25 66 -41 100 -15 34 -28 65 -28 69 0 10 -45
125 -72 186 l-21 47 -19 -25 c-11 -13 -25 -24 -32 -24 -7 0 -27 -16 -46 -35
-19 -19 -42 -35 -51 -35 -9 0 -37 -11 -60 -25 -51 -29 -84 -33 -75 -9 3 9 6
19 6 23 0 5 11 20 24 34 13 14 26 30 27 36 6 15 179 102 190 95 16 -10 21 24
9 63 -28 85 -52 143 -59 143 -5 0 -44 -53 -88 -117z m396 -673 c0 -10 -3 -8
-9 5 -12 27 -12 43 0 25 5 -8 9 -22 9 -30z m20 -60 c0 -10 -3 -8 -9 5 -12 27
-12 43 0 25 5 -8 9 -22 9 -30z"/>
<path d="M1660 2502 c0 -7 15 -35 34 -62 19 -27 36 -55 39 -62 10 -30 18 4 8
35 -12 34 -81 111 -81 89z"/>
<path d="M1783 2352 c-9 -16 -7 -72 3 -72 3 0 56 22 62 26 5 3 -40 64 -47 64
-4 0 -11 -8 -18 -18z"/>
<path d="M700 2095 c-7 -9 -8 -15 -2 -15 5 0 12 7 16 15 3 8 4 15 2 15 -2 0
-9 -7 -16 -15z"/>
<path d="M2650 1995 l0 -95 170 0 c94 0 170 -4 170 -9 0 -5 -76 -114 -170
-242 l-170 -233 0 -93 0 -93 310 0 310 0 0 101 0 100 -175 -3 c-96 -2 -175 -1
-175 2 0 3 79 111 175 240 l174 235 1 93 0 92 -310 0 -310 0 0 -95z"/>
<path d="M3485 2077 c-3 -6 -4 -199 -3 -427 l3 -415 117 -3 118 -3 2 188 3
187 134 -187 135 -187 138 0 c76 0 138 3 138 7 0 3 -72 103 -161 221 l-161
214 149 196 c81 107 152 201 156 209 7 11 -17 13 -127 13 l-135 0 -128 -179
c-70 -99 -131 -180 -135 -180 -5 -1 -8 80 -8 179 l0 180 -115 0 c-83 0 -117
-3 -120 -13z"/>
<path d="M4450 1660 l0 -430 120 0 120 0 1 233 0 232 81 -232 81 -233 97 0 98
0 30 83 c16 45 51 147 78 227 l49 145 3 -227 2 -228 120 0 120 0 0 430 0 430
-143 0 -142 0 -104 -275 c-58 -152 -108 -272 -111 -268 -4 5 -53 128 -110 276
l-103 267 -143 0 -144 0 0 -430z"/>
<path d="M5620 2086 c0 -2 63 -95 140 -206 77 -112 140 -206 140 -210 0 -4
-61 -103 -135 -220 -74 -116 -135 -214 -135 -216 0 -2 60 -4 133 -4 l133 0 69
120 c39 66 72 120 75 119 3 0 41 -53 85 -117 l80 -117 138 -3 c75 -1 137 0
137 3 0 4 -63 98 -140 210 -77 112 -140 208 -140 213 0 6 56 99 125 207 69
107 128 202 132 210 5 14 -12 15 -128 13 l-133 -3 -66 -112 c-36 -62 -68 -113
-71 -113 -4 0 -42 52 -85 115 l-78 115 -138 0 c-76 0 -138 -2 -138 -4z"/>
<path d="M2020 1975 c0 -3 15 -38 34 -78 18 -40 38 -99 45 -131 6 -33 18 -67
27 -77 14 -16 14 -18 -3 -22 -10 -3 57 -5 148 -6 91 0 169 2 172 6 4 4 -32 32
-80 63 -49 31 -140 100 -203 153 -100 85 -140 111 -140 92z"/>
<path d="M480 1838 c-110 -118 -109 -122 3 -24 37 32 76 76 87 97 10 22 17 39
16 39 -1 0 -49 -51 -106 -112z"/>
<path d="M637 1888 c-58 -81 -110 -186 -103 -205 5 -13 28 -15 141 -11 74 2
139 8 144 13 12 13 -19 110 -61 195 -45 89 -63 90 -121 8z"/>
<path d="M463 1653 c26 -2 67 -2 90 0 23 2 2 3 -48 3 -49 0 -68 -1 -42 -3z"/>
<path d="M2362 1568 c-135 -127 -374 -369 -406 -411 -67 -88 -5 -35 191 165
239 243 319 328 309 328 -4 0 -46 -37 -94 -82z"/>
<path d="M1316 1630 l-440 -5 -8 -35 c-19 -73 -80 -228 -111 -280 -35 -59 -64
-81 -47 -36 l10 26 -32 -16 -31 -16 38 -36 c24 -24 39 -33 42 -24 3 6 12 12
20 12 8 0 31 14 50 30 38 34 48 37 56 16 6 -16 16 -14 119 23 64 23 116 25
393 14 168 -6 169 -6 195 -34 25 -27 25 -27 47 -9 16 12 42 73 83 196 33 97
59 178 58 178 -2 1 -201 -1 -442 -4z"/>
<path d="M1785 1628 c-3 -7 -29 -85 -59 -173 -30 -88 -80 -232 -111 -320 -81
-229 -175 -508 -175 -520 1 -12 52 46 88 100 14 22 45 65 69 95 51 66 66 102
68 157 2 52 19 74 51 68 81 -17 77 -14 71 -48 -3 -18 -8 -41 -12 -52 -4 -11
25 13 64 53 39 41 71 78 71 83 0 5 -9 9 -20 9 -34 0 -89 32 -92 54 -2 14 -15
25 -38 33 -32 10 -35 14 -33 48 3 37 102 343 130 398 l14 27 -41 0 c-23 0 -43
-5 -45 -12z"/>
<path d="M365 1623 c6 -5 42 -32 80 -58 39 -27 75 -53 80 -57 44 -36 107 -79
110 -76 6 7 -55 124 -83 157 -27 33 -31 34 -113 39 -52 3 -80 1 -74 -5z"/>
<path d="M650 1624 c0 -4 8 -23 19 -43 24 -46 57 -121 65 -144 3 -10 12 -17
19 -15 11 4 55 115 71 181 l6 27 -90 0 c-49 0 -90 -3 -90 -6z"/>
<path d="M1887 1251 c-38 -42 -61 -80 -54 -87 5 -5 51 51 82 99 25 38 13 34
-28 -12z"/>
<path d="M1090 878 c1 -7 6 -25 13 -40 17 -39 268 -312 277 -301 6 8 60 155
60 166 0 3 -8 5 -18 4 -9 0 -57 25 -106 57 -90 59 -207 126 -219 126 -4 0 -7
-6 -7 -12z"/>
<path d="M1583 732 c-36 -35 -89 -102 -81 -102 2 0 32 32 67 70 69 77 75 91
14 32z"/>
</g>
</svg>
